<svg xmlns="http://www.w3.org/2000/svg" xmlns:xlink="http://www.w3.org/1999/xlink" width="300" zoomAndPan="magnify" viewBox="0 0 375 374.999991" height="300" preserveAspectRatio="xMidYMid meet" version="1.0"><defs><g/><clipPath id="477cd0aa2d"><path d="M 18 66 L 103 66 L 103 185 L 18 185 Z M 18 66 " clip-rule="nonzero"/></clipPath><clipPath id="95451f4f73"><path d="M -3.402344 129.292969 L 83.527344 63.949219 L 147.066406 148.480469 L 60.136719 213.824219 Z M -3.402344 129.292969 " clip-rule="nonzero"/></clipPath><clipPath id="59c14230ce"><path d="M -3.402344 129.292969 L 83.527344 63.949219 L 147.066406 148.480469 L 60.136719 213.824219 Z M -3.402344 129.292969 " clip-rule="nonzero"/></clipPath></defs><g clip-path="url(#477cd0aa2d)"><g clip-path="url(#95451f4f73)"><g clip-path="url(#59c14230ce)"><path fill="#845620" d="M 43.519531 125.566406 C 44.566406 126.367188 44.765625 127.867188 43.96875 128.914062 C 43.167969 129.957031 41.671875 130.15625 40.625 129.359375 C 39.578125 128.558594 39.375 127.058594 40.175781 126.011719 C 40.976562 124.964844 42.472656 124.765625 43.519531 125.566406 Z M 98.542969 165.828125 C 100.957031 175.242188 100.175781 179.953125 98.644531 181.226562 C 98.070312 181.699219 97.253906 181.695312 96.21875 181.210938 C 91.191406 178.863281 83.703125 166.75 83.582031 148.195312 C 83.558594 144.1875 83.570312 140.578125 83.617188 137.3125 C 89.820312 144.058594 95.324219 153.269531 98.542969 165.828125 Z M 86.230469 68.101562 C 85.308594 67.019531 84.128906 66.429688 82.722656 66.347656 C 80.785156 66.230469 78.785156 67.511719 76.929688 70.054688 C 71.140625 78 66.585938 98.46875 74.601562 119.085938 C 74.894531 119.835938 75.738281 120.207031 76.484375 119.914062 C 77.234375 119.625 77.605469 118.78125 77.316406 118.03125 C 72.992188 106.910156 72.851562 96.738281 73.496094 90.164062 C 74.222656 82.71875 76.441406 75.667969 79.285156 71.773438 C 80.472656 70.140625 81.691406 69.199219 82.550781 69.253906 C 83.160156 69.289062 83.613281 69.515625 84.015625 69.992188 C 86.578125 72.996094 85.546875 83.472656 84.714844 91.890625 C 84.578125 93.261719 84.4375 94.683594 84.316406 96.03125 C 84.023438 99.277344 83.609375 102.054688 83.171875 104.988281 C 82.265625 111.039062 81.273438 117.671875 80.855469 130.566406 C 70.929688 121.964844 60.300781 118.433594 54.285156 117.035156 C 45.820312 115.066406 40.554688 117.902344 37.625 120.625 C 33.117188 124.824219 30.960938 131.855469 31.929688 139.101562 L 27.75 144.742188 C 27.75 144.742188 27.75 144.746094 27.75 144.746094 L 18.824219 156.804688 C 18.34375 157.449219 18.480469 158.363281 19.125 158.839844 C 19.773438 159.320312 20.683594 159.183594 21.164062 158.539062 L 30.09375 146.476562 C 34.144531 141.007812 43.441406 135.238281 52.457031 141.761719 C 53.355469 142.40625 54.367188 143.382812 55.539062 144.511719 C 59.679688 148.492188 65.347656 153.949219 74.539062 153.71875 C 74.855469 153.710938 75.144531 153.605469 75.378906 153.429688 C 75.742188 153.15625 75.972656 152.71875 75.957031 152.230469 C 75.9375 151.425781 75.269531 150.789062 74.464844 150.808594 C 66.488281 151.003906 61.535156 146.242188 57.558594 142.410156 C 56.304688 141.207031 55.222656 140.167969 54.164062 139.398438 C 47.210938 134.375 40.175781 135.417969 34.789062 138.515625 C 34.007812 132.265625 35.824219 126.285156 39.609375 122.757812 C 43.066406 119.542969 47.914062 118.542969 53.628906 119.871094 C 59.726562 121.289062 70.796875 125.007812 80.753906 134.414062 C 80.671875 138.421875 80.636719 142.980469 80.671875 148.210938 C 80.742188 159.253906 83.3125 167.265625 85.457031 172.042969 C 88.113281 177.960938 91.585938 182.261719 94.988281 183.851562 C 96.992188 184.785156 98.878906 184.699219 100.328125 183.609375 C 100.386719 183.5625 100.445312 183.515625 100.503906 183.46875 C 103.507812 180.980469 103.804688 174.628906 101.367188 165.109375 C 97.652344 150.621094 91.015625 140.398438 83.695312 133.1875 C 84.054688 118.769531 85.101562 111.769531 86.046875 105.425781 C 86.496094 102.445312 86.914062 99.628906 87.21875 96.296875 C 87.339844 94.960938 87.472656 93.609375 87.613281 92.179688 C 88.589844 82.285156 89.597656 72.050781 86.230469 68.101562 " fill-opacity="1" fill-rule="nonzero"/></g></g></g><g fill="#845620" fill-opacity="1"><g transform="translate(89.371331, 129.986541)"><g><path d="M 27.679688 -8.386719 C 27.328125 -8.769531 26.769531 -8.804688 26.382812 -8.457031 C 26.3125 -8.421875 19.085938 -2.105469 13.789062 -2.945312 C 12.210938 -3.191406 10.839844 -4.140625 10.070312 -5.542969 C 9.402344 -6.769531 8.175781 -7.542969 6.804688 -7.683594 C 5.085938 -7.789062 3.191406 -6.769531 1.191406 -4.667969 C 1.085938 -4.5625 0.914062 -4.527344 0.773438 -4.597656 C 0.632812 -4.667969 0.5625 -4.804688 0.597656 -4.980469 C 0.703125 -5.648438 1.015625 -7.332031 1.15625 -7.964844 C 1.15625 -7.859375 1.402344 -8.351562 1.402344 -8.386719 C 4.386719 -12.453125 13.296875 -25.367188 9.824219 -29.503906 C 9.367188 -30.136719 8.523438 -30.417969 7.753906 -30.207031 C 7.050781 -29.996094 4.910156 -29.328125 1.613281 -17.613281 C 0.808594 -14.769531 0.0703125 -11.71875 -0.527344 -8.839844 L -0.773438 -8.523438 C -1.015625 -8.210938 -1.015625 -7.789062 -0.808594 -7.4375 C -1.332031 -4.839844 -1.683594 -2.457031 -1.859375 -0.632812 C -1.894531 -0.210938 -1.648438 0.175781 -1.261719 0.316406 C -0.878906 0.457031 -0.421875 0.316406 -0.175781 -0.0351562 C 3.402344 -5.226562 5.683594 -5.894531 6.699219 -5.859375 C 7.4375 -5.789062 8.105469 -5.332031 8.457031 -4.667969 C 9.507812 -2.773438 11.367188 -1.4375 13.542969 -1.121094 C 19.648438 -0.175781 27.261719 -6.804688 27.609375 -7.085938 C 27.960938 -7.4375 27.996094 -8 27.679688 -8.386719 Z M 8.28125 -28.453125 C 8.351562 -28.453125 8.386719 -28.347656 8.421875 -28.3125 C 10.105469 -26.417969 3.121094 -12.3125 2.246094 -12.875 C 1.402344 -13.402344 6.804688 -28.453125 8.28125 -28.453125 Z M 8.28125 -28.453125 "/></g></g></g><g fill="#845620" fill-opacity="1"><g transform="translate(115.882812, 129.986541)"><g><path d="M 30.417969 -9.859375 C 30.242188 -10.035156 29.996094 -10.105469 29.75 -10.105469 C 29.503906 -10.105469 29.292969 -10 29.121094 -9.824219 C 25.960938 -6.492188 18.875 -1.613281 13.683594 -1.613281 L 13.613281 -1.613281 C 12.175781 -1.542969 10.804688 -2.105469 9.824219 -3.121094 C 8.558594 -4.492188 9.4375 -8.210938 9.859375 -9.402344 C 10.035156 -9.859375 9.824219 -10.351562 9.402344 -10.523438 C 9.015625 -10.734375 8.488281 -10.628906 8.246094 -10.246094 C 5.542969 -6.316406 1.683594 -2.492188 0.421875 -3.226562 C 0 -3.507812 0.632812 -6.210938 2.351562 -9.261719 C 2.5625 -9.683594 2.421875 -10.210938 2 -10.453125 C 1.578125 -10.699219 1.015625 -10.59375 0.773438 -10.175781 C -0.421875 -8.105469 -2.910156 -3.085938 -0.527344 -1.648438 C 1.367188 -0.527344 3.929688 -2.351562 6.070312 -4.5625 C 6.28125 -4.804688 6.59375 -4.875 6.875 -4.769531 C 7.15625 -4.703125 7.367188 -4.457031 7.4375 -4.140625 C 7.542969 -3.296875 7.894531 -2.527344 8.457031 -1.859375 C 9.789062 -0.457031 11.648438 0.316406 13.578125 0.246094 L 13.683594 0.246094 C 19.472656 0.246094 26.980469 -4.875 30.453125 -8.523438 C 30.628906 -8.734375 30.699219 -8.945312 30.699219 -9.191406 C 30.699219 -9.4375 30.59375 -9.683594 30.417969 -9.859375 Z M 30.417969 -9.859375 "/></g></g></g><g fill="#845620" fill-opacity="1"><g transform="translate(144.884135, 129.986541)"><g><path d="M 25.574219 -9.964844 C 25.402344 -10.140625 25.191406 -10.210938 24.945312 -10.210938 C 24.699219 -10.210938 24.453125 -10.140625 24.277344 -9.964844 C 20.066406 -5.753906 14.105469 -3.824219 8.246094 -4.804688 C 7.789062 -4.910156 7.472656 -5.332031 7.542969 -5.789062 C 7.824219 -7.472656 7.683594 -9.191406 6.699219 -9.753906 C 6.070312 -10.105469 5.121094 -10.140625 4 -8.246094 C 3.578125 -7.613281 3.4375 -6.839844 3.578125 -6.105469 C 3.753906 -5.367188 4.210938 -4.703125 4.839844 -4.316406 C 5.226562 -4 4.769531 -3.472656 4.527344 -3.226562 C 3.859375 -2.421875 2.703125 -2.28125 1.894531 -2.910156 C 0.878906 -3.367188 0.421875 -4.492188 0.808594 -5.507812 C 1.261719 -7.367188 3.085938 -8.980469 3.753906 -8.980469 C 4.246094 -8.980469 4.667969 -9.402344 4.667969 -9.894531 C 4.703125 -10.382812 4.28125 -10.804688 3.789062 -10.839844 L 3.753906 -10.839844 C 2 -10.839844 -0.351562 -8.457031 -0.980469 -5.964844 C -1.578125 -4.140625 -0.738281 -2.140625 1.015625 -1.296875 C 1.683594 -0.914062 2.421875 -0.738281 3.191406 -0.703125 C 4.703125 -0.773438 6.035156 -1.683594 6.664062 -3.085938 C 6.734375 -3.191406 6.910156 -3.261719 7.050781 -3.226562 C 11.507812 -1.894531 19.648438 -2.738281 25.574219 -8.628906 C 25.75 -8.804688 25.855469 -9.050781 25.855469 -9.296875 C 25.855469 -9.542969 25.75 -9.789062 25.574219 -9.964844 Z M 5.71875 -5.964844 C 5.332031 -6.316406 5.261719 -6.875 5.578125 -7.296875 C 5.683594 -7.472656 5.753906 -7.578125 5.824219 -7.683594 C 5.859375 -7.121094 5.824219 -6.527344 5.71875 -5.964844 Z M 5.71875 -5.964844 "/></g></g></g><g fill="#845620" fill-opacity="1"><g transform="translate(169.116202, 129.986541)"><g><path d="M 30.664062 -8.734375 C 30.453125 -8.875 30.242188 -8.980469 29.996094 -8.980469 C 29.75 -8.945312 29.503906 -8.839844 29.363281 -8.664062 C 29.257812 -8.59375 21.542969 -0.351562 14.839844 -3.050781 C 13.402344 -3.824219 12.242188 -4.980469 11.4375 -6.421875 C 11.15625 -6.875 10.804688 -7.332031 10.382812 -7.753906 C 9.929688 -8.316406 9.226562 -8.628906 8.488281 -8.664062 C 6.699219 -8.804688 4.527344 -7.613281 1.929688 -5.15625 C 1.859375 -5.085938 1.753906 -5.050781 1.648438 -5.121094 C 1.542969 -5.15625 1.472656 -5.296875 1.507812 -5.402344 L 2.28125 -8.839844 C 2.421875 -9.332031 2.105469 -9.859375 1.613281 -9.964844 C 1.121094 -10.070312 0.632812 -9.753906 0.492188 -9.261719 L -1.261719 -1.578125 C -1.367188 -1.15625 -1.15625 -0.738281 -0.773438 -0.5625 C -0.386719 -0.351562 0.0703125 -0.457031 0.351562 -0.773438 C 5.050781 -6.28125 7.4375 -6.804688 8.28125 -6.839844 C 9.121094 -6.875 9.648438 -5.789062 9.929688 -5.367188 C 10.910156 -3.648438 12.382812 -2.246094 14.136719 -1.367188 C 21.996094 1.824219 30.347656 -7.050781 30.699219 -7.4375 C 31.050781 -7.789062 31.015625 -8.386719 30.664062 -8.734375 Z M 30.664062 -8.734375 "/></g></g></g><g fill="#845620" fill-opacity="1"><g transform="translate(198.327937, 129.986541)"><g><path d="M 24.417969 -9.226562 C 24.03125 -9.578125 23.4375 -9.542969 23.121094 -9.15625 C 20.347656 -6.28125 15.859375 -6 12.769531 -8.488281 C 12.035156 -9.015625 11.015625 -8.980469 10.351562 -8.351562 C 9.964844 -8 9.542969 -7.613281 9.121094 -7.15625 C 7.789062 -5.648438 7.542969 -6.910156 7.542969 -7.753906 C 7.542969 -8.488281 7.402344 -9.261719 7.15625 -9.964844 C 7.015625 -10.316406 6.664062 -10.558594 6.28125 -10.558594 C 5.894531 -10.523438 5.578125 -10.316406 5.4375 -9.929688 C 4.457031 -7.191406 2.351562 -3.191406 0.878906 -2.910156 C 0.773438 -2.875 0.492188 -2.839844 0.0703125 -3.296875 C -0.140625 -4.210938 0 -5.191406 0.457031 -6.035156 C 1.507812 -8.875 4.105469 -10.875 7.121094 -11.15625 C 7.648438 -11.191406 8.035156 -11.648438 8 -12.140625 C 7.964844 -12.664062 7.507812 -13.050781 7.015625 -13.015625 C 3.261719 -12.664062 0.0351562 -10.210938 -1.296875 -6.664062 C -1.894531 -5.121094 -2.246094 -3.085938 -1.296875 -2.070312 C -0.667969 -1.296875 0.28125 -0.945312 1.226562 -1.121094 C 2.980469 -1.472656 4.5625 -3.789062 5.683594 -5.894531 C 5.613281 -5.050781 5.507812 -4.105469 5.367188 -3.121094 C 5.332031 -2.910156 5.261719 -2.738281 5.15625 -2.597656 C 1.050781 2.597656 -2.667969 8.875 -2.738281 12.839844 C -2.839844 13.894531 -2.457031 14.945312 -1.753906 15.71875 C -1.402344 16.066406 -0.980469 16.242188 -0.527344 16.242188 C -0.140625 16.242188 0.246094 16.136719 0.5625 15.929688 C 2.875 14.382812 5.824219 5.367188 6.980469 -1.789062 C 7.015625 -1.929688 7.085938 -2.070312 7.191406 -2.210938 C 8.421875 -3.71875 9.71875 -5.15625 11.085938 -6.527344 C 11.402344 -6.839844 11.894531 -6.875 12.242188 -6.628906 C 16.101562 -4.035156 21.226562 -4.597656 24.453125 -7.929688 C 24.769531 -8.316406 24.769531 -8.875 24.417969 -9.226562 Z M 1.050781 12.210938 C 0.246094 13.824219 -0.0351562 14.523438 -0.457031 14.382812 C -0.878906 14.277344 -0.914062 13.578125 -0.878906 12.875 C -0.808594 10.175781 3.894531 1.015625 4.5625 1.296875 C 5.226562 1.578125 2.386719 9.4375 1.050781 12.210938 Z M 1.050781 12.210938 "/></g></g></g><g fill="#845620" fill-opacity="1"><g transform="translate(221.437817, 129.986541)"><g/></g></g><g fill="#845620" fill-opacity="1"><g transform="translate(234.483145, 129.986541)"><g><path d="M 11.121094 -0.351562 C 20.769531 -1.085938 44.136719 -10.035156 44.835938 -27.679688 C 44.941406 -31.925781 42.871094 -35.925781 39.328125 -38.3125 C 33.46875 -42.660156 24.523438 -43.714844 16.558594 -40.941406 C 7.332031 -37.785156 1.4375 -32.101562 0.738281 -25.75 C 0.210938 -21.820312 2.105469 -17.925781 5.507812 -15.894531 C 7.964844 -14.453125 10.839844 -13.824219 13.648438 -14.136719 C 13.824219 -14.171875 14 -14.105469 14.105469 -13.964844 C 14.207031 -13.824219 14.242188 -13.648438 14.207031 -13.507812 C 12.804688 -9.050781 11.332031 -4.597656 10.175781 -1.613281 C 10.070312 -1.332031 10.105469 -1.015625 10.28125 -0.738281 C 10.453125 -0.492188 10.734375 -0.351562 11.050781 -0.351562 Z M 16.242188 -13.894531 C 16.382812 -14.3125 16.734375 -14.664062 17.191406 -14.804688 C 20.03125 -15.613281 22.699219 -16.839844 25.121094 -18.453125 C 25.402344 -18.628906 25.574219 -18.945312 25.539062 -19.296875 C 25.539062 -19.613281 25.332031 -19.925781 25.050781 -20.066406 C 24.734375 -20.207031 24.382812 -20.207031 24.101562 -19.996094 C 22.207031 -18.769531 20.171875 -17.753906 18.03125 -16.980469 C 17.859375 -16.910156 17.648438 -16.980469 17.507812 -17.121094 C 17.402344 -17.226562 17.332031 -17.4375 17.402344 -17.613281 C 19.261719 -23.785156 20.769531 -28.980469 20.804688 -29.050781 C 20.910156 -29.46875 20.734375 -29.925781 20.347656 -30.101562 C 19.996094 -30.3125 19.542969 -30.242188 19.226562 -29.925781 C 17.683594 -28.277344 15.15625 -27.925781 13.226562 -29.121094 C 12.804688 -29.398438 12.242188 -29.257812 11.964844 -28.839844 C 11.683594 -28.382812 11.824219 -27.820312 12.277344 -27.539062 C 13.789062 -26.558594 15.683594 -26.277344 17.402344 -26.769531 C 17.578125 -26.839844 17.789062 -26.804688 17.925781 -26.664062 C 18.03125 -26.558594 18.101562 -26.347656 18.03125 -26.171875 C 17.332031 -23.820312 16.347656 -20.453125 15.261719 -16.875 C 15.121094 -16.453125 14.734375 -16.136719 14.3125 -16.066406 C 11.613281 -15.613281 8.839844 -16.101562 6.492188 -17.4375 C 3.683594 -19.121094 2.140625 -22.3125 2.5625 -25.574219 C 3.15625 -31.1875 8.628906 -36.277344 17.15625 -39.222656 C 24.59375 -41.785156 32.839844 -40.835938 38.242188 -36.835938 C 41.257812 -34.835938 43.046875 -31.398438 43.011719 -27.75 C 42.414062 -12.769531 23.191406 -4.28125 13.261719 -2.492188 C 13.085938 -2.457031 12.910156 -2.527344 12.804688 -2.667969 C 12.699219 -2.808594 12.664062 -2.980469 12.699219 -3.15625 C 13.789062 -6.210938 15.050781 -10.070312 16.242188 -13.894531 Z M 16.242188 -13.894531 "/></g></g></g><g fill="#845620" fill-opacity="1"><g transform="translate(277.301303, 129.986541)"><g><path d="M 22.734375 -9.472656 C 22.347656 -9.824219 21.785156 -9.824219 21.4375 -9.4375 C 21.296875 -9.332031 9.929688 2.246094 2.386719 -3.261719 C 0.0703125 -4.945312 2.316406 -9.332031 2.351562 -9.367188 C 2.5625 -9.824219 2.386719 -10.351562 1.929688 -10.59375 C 1.472656 -10.804688 0.945312 -10.664062 0.703125 -10.210938 C 0.5625 -10 -2.28125 -4.421875 1.296875 -1.789062 C 2.945312 -0.5625 4.980469 0.105469 7.050781 0.0703125 C 14.628906 0.0703125 22.3125 -7.753906 22.734375 -8.175781 C 22.910156 -8.351562 23.015625 -8.558594 23.015625 -8.804688 C 22.980469 -9.050781 22.910156 -9.296875 22.734375 -9.472656 Z M 0.316406 -12.242188 C 0.457031 -12.242188 0.597656 -12.277344 0.738281 -12.347656 C 1.578125 -12.769531 2.316406 -13.332031 2.980469 -14 C 3.332031 -14.382812 3.296875 -14.945312 2.945312 -15.296875 C 2.5625 -15.648438 2 -15.648438 1.648438 -15.261719 C 1.121094 -14.734375 0.527344 -14.3125 -0.140625 -13.964844 C -0.492188 -13.789062 -0.703125 -13.332031 -0.597656 -12.945312 C -0.492188 -12.523438 -0.105469 -12.242188 0.316406 -12.242188 Z M 0.316406 -12.242188 "/></g></g></g><g fill="#845620" fill-opacity="1"><g transform="translate(298.833115, 129.986541)"><g><path d="M 30.664062 -8.734375 C 30.453125 -8.875 30.242188 -8.980469 29.996094 -8.980469 C 29.75 -8.945312 29.503906 -8.839844 29.363281 -8.664062 C 29.257812 -8.59375 21.542969 -0.351562 14.839844 -3.050781 C 13.402344 -3.824219 12.242188 -4.980469 11.4375 -6.421875 C 11.15625 -6.875 10.804688 -7.332031 10.382812 -7.753906 C 9.929688 -8.316406 9.226562 -8.628906 8.488281 -8.664062 C 6.699219 -8.804688 4.527344 -7.613281 1.929688 -5.15625 C 1.859375 -5.085938 1.753906 -5.050781 1.648438 -5.121094 C 1.542969 -5.15625 1.472656 -5.296875 1.507812 -5.402344 L 2.28125 -8.839844 C 2.421875 -9.332031 2.105469 -9.859375 1.613281 -9.964844 C 1.121094 -10.070312 0.632812 -9.753906 0.492188 -9.261719 L -1.261719 -1.578125 C -1.367188 -1.15625 -1.15625 -0.738281 -0.773438 -0.5625 C -0.386719 -0.351562 0.0703125 -0.457031 0.351562 -0.773438 C 5.050781 -6.28125 7.4375 -6.804688 8.28125 -6.839844 C 9.121094 -6.875 9.648438 -5.789062 9.929688 -5.367188 C 10.910156 -3.648438 12.382812 -2.246094 14.136719 -1.367188 C 21.996094 1.824219 30.347656 -7.050781 30.699219 -7.4375 C 31.050781 -7.789062 31.015625 -8.386719 30.664062 -8.734375 Z M 30.664062 -8.734375 "/></g></g></g><g fill="#845620" fill-opacity="1"><g transform="translate(328.044851, 129.986541)"><g><path d="M 27.679688 -8.386719 C 27.328125 -8.769531 26.769531 -8.804688 26.382812 -8.457031 C 26.3125 -8.421875 19.085938 -2.105469 13.789062 -2.945312 C 12.210938 -3.191406 10.839844 -4.140625 10.070312 -5.542969 C 9.402344 -6.769531 8.175781 -7.542969 6.804688 -7.683594 C 5.085938 -7.789062 3.191406 -6.769531 1.191406 -4.667969 C 1.085938 -4.5625 0.914062 -4.527344 0.773438 -4.597656 C 0.632812 -4.667969 0.5625 -4.804688 0.597656 -4.980469 C 0.703125 -5.648438 1.015625 -7.332031 1.15625 -7.964844 C 1.15625 -7.859375 1.402344 -8.351562 1.402344 -8.386719 C 4.386719 -12.453125 13.296875 -25.367188 9.824219 -29.503906 C 9.367188 -30.136719 8.523438 -30.417969 7.753906 -30.207031 C 7.050781 -29.996094 4.910156 -29.328125 1.613281 -17.613281 C 0.808594 -14.769531 0.0703125 -11.71875 -0.527344 -8.839844 L -0.773438 -8.523438 C -1.015625 -8.210938 -1.015625 -7.789062 -0.808594 -7.4375 C -1.332031 -4.839844 -1.683594 -2.457031 -1.859375 -0.632812 C -1.894531 -0.210938 -1.648438 0.175781 -1.261719 0.316406 C -0.878906 0.457031 -0.421875 0.316406 -0.175781 -0.0351562 C 3.402344 -5.226562 5.683594 -5.894531 6.699219 -5.859375 C 7.4375 -5.789062 8.105469 -5.332031 8.457031 -4.667969 C 9.507812 -2.773438 11.367188 -1.4375 13.542969 -1.121094 C 19.648438 -0.175781 27.261719 -6.804688 27.609375 -7.085938 C 27.960938 -7.4375 27.996094 -8 27.679688 -8.386719 Z M 8.28125 -28.453125 C 8.351562 -28.453125 8.386719 -28.347656 8.421875 -28.3125 C 10.105469 -26.417969 3.121094 -12.3125 2.246094 -12.875 C 1.402344 -13.402344 6.804688 -28.453125 8.28125 -28.453125 Z M 8.28125 -28.453125 "/></g></g></g><g fill="#845620" fill-opacity="1"><g transform="translate(354.550341, 129.986541)"><g/></g></g></svg>